<?xml version="1.0" standalone="no"?>
<!DOCTYPE svg PUBLIC "-//W3C//DTD SVG 20010904//EN"
 "http://www.w3.org/TR/2001/REC-SVG-20010904/DTD/svg10.dtd">
<svg version="1.0" xmlns="http://www.w3.org/2000/svg"
 width="260.000000pt" height="260.000000pt" viewBox="0 0 260.000000 260.000000"
 preserveAspectRatio="xMidYMid meet">
<metadata>
Created by potrace 1.11, written by Peter Selinger 2001-2013
</metadata>
<g transform="translate(0.000000,260.000000) scale(0.100000,-0.100000)"
fill="#000000" stroke="none">
<path d="M2145 2588 c-37 -20 -147 -138 -155 -166 -4 -17 -2 -37 6 -53 12 -25
8 -30 -181 -219 l-194 -194 -58 18 c-137 40 -276 41 -399 1 -141 -46 -177 -76
-651 -549 -510 -509 -507 -505 -508 -646 0 -138 10 -152 321 -464 317 -317
322 -320 473 -314 68 2 108 9 136 22 26 13 195 175 490 470 248 248 460 465
471 481 118 169 148 371 88 578 l-18 58 194 194 193 193 32 -14 c42 -17 69 -3
152 80 58 59 63 67 63 108 0 44 -1 45 -184 227 -101 101 -190 187 -197 192
-19 12 -50 11 -74 -3z m-837 -1296 l229 -228 -308 -307 c-168 -169 -311 -307
-315 -307 -12 0 -454 442 -454 454 0 10 601 615 612 615 4 1 111 -102 236
-227z"/>
</g>
</svg>
